<svg width="12" height="12" viewBox="0 0 12 12" fill="none" xmlns="http://www.w3.org/2000/svg">
<path d="M5.48592 1.35423C5.71911 0.96674 6.28089 0.966741 6.51408 1.35423L7.67931 3.29043C7.76308 3.42964 7.89973 3.52892 8.05802 3.56558L10.2595 4.07546C10.7001 4.1775 10.8737 4.71178 10.5772 5.0533L9.09589 6.75982C8.98938 6.88251 8.93718 7.04315 8.95123 7.20501L9.14662 9.45633C9.18572 9.90689 8.73123 10.2371 8.31481 10.0607L6.23405 9.17916C6.08445 9.11578 5.91555 9.11578 5.76595 9.17916L3.68519 10.0607C3.26877 10.2371 2.81428 9.90689 2.85338 9.45633L3.04877 7.20501C3.06282 7.04315 3.01062 6.88251 2.90411 6.75982L1.42275 5.0533C1.12629 4.71178 1.29989 4.1775 1.74047 4.07545L3.94198 3.56558C4.10027 3.52892 4.23692 3.42964 4.32069 3.29043L5.48592 1.35423Z" fill="#FFDF0B"/>
</svg>
